<svg width="145" height="144" viewBox="0 0 145 144" fill="none" xmlns="http://www.w3.org/2000/svg">
<path d="M136.028 47.9963L129.669 25.2072L103.512 32.1035L101.224 17.7316L96.396 27.0403C95.9435 27.0439 95.4911 27.0303 95.0398 26.9993L80.5884 0L59.0883 10.8873L72.6449 14.0015L57.3114 21.7655L54.2357 21.2787C52.9771 20.3571 51.4752 19.6053 49.7567 19.0437L33.0474 13.579L26.7979 5.01169L13.6821 43.1839L0 48.5588L9.28158 54.0754L17.6561 74.2285L14.9201 84.4664L29.9604 78.5579L16.0601 89.2092L26.5635 91.9839L40.3839 109.059L40.5104 113.507C40.3977 113.659 40.28 113.798 40.1765 113.954C38.56 116.251 37.5112 118.653 37.068 121.104C36.6218 123.549 36.7061 125.979 37.3082 128.321C37.9039 130.621 38.9738 132.809 40.4893 134.826C41.9686 136.794 43.8583 138.551 46.1 140.052C48.6966 141.79 51.2796 142.951 53.7831 143.506C56.3269 144.076 58.772 144.151 61.0456 143.739C62.1447 143.542 63.2209 143.239 64.2581 142.834C65.3265 142.415 66.3454 141.885 67.2971 141.253C69.1037 140.05 70.6665 138.532 71.907 136.777C74.1339 133.611 75.2621 130.433 75.246 127.338C75.2449 126.886 75.222 126.434 75.1773 125.983L78.634 127.297L76.3516 130.541L86.8193 130.137L104.978 129.431L98.3195 121.415L98.1346 116.919L98.5033 116.905L106.401 119.78L106.021 110.781L109.574 114.341L110.136 115.715L107.419 125.666L137.89 113.866C138.481 113.78 139.06 113.628 139.615 113.412C141.591 112.636 143.06 111.198 143.858 109.26C144.624 107.375 144.632 105.405 143.868 103.566C143.485 102.643 142.921 101.801 142.207 101.088C141.494 100.384 140.645 99.8224 139.71 99.4347C138.806 99.0658 137.841 98.858 136.861 98.8211C135.689 98.7821 134.527 99.0223 133.469 99.4867L131.943 95.7599C132.556 95.6762 133.156 95.5218 133.73 95.2998C135.533 94.5918 136.896 93.3332 137.697 91.8075L138.517 88.6161C138.527 87.6166 138.332 86.6252 137.944 85.6998C136.755 82.8392 134.01 81.1305 131.038 81.1239L132.109 64.6876L137.53 63.2583L134.632 61.0094C134.834 60.6657 135.03 60.3167 135.224 59.9386C136.132 58.1917 136.596 56.1579 136.591 53.8904L136.597 53.8876C136.598 52.8876 136.394 51.8975 135.995 50.9755C135.605 50.0875 135.045 49.2796 134.345 48.5946C133.631 47.906 132.793 47.3521 131.871 46.9612C130.901 46.5488 129.834 46.3386 128.721 46.3319C127.882 46.3271 127.048 46.45 126.248 46.6961L124.49 40.3924L136.028 47.9967V47.9963Z" fill="black"/>
<path d="M68.5281 121.545C70.1844 123.432 71.016 125.553 71.0263 127.908C71.0361 130.26 70.1398 132.717 68.3364 135.274C67.3624 136.659 66.1309 137.854 64.7052 138.798C63.2661 139.755 61.6574 140.395 59.8815 140.716C58.1061 141.037 56.1919 140.969 54.1385 140.512C52.089 140.055 49.9537 139.086 47.7434 137.607C45.8425 136.338 44.2769 134.881 43.0389 133.236C41.8053 131.593 40.9457 129.847 40.4677 127.996C39.9877 126.15 39.9274 124.255 40.2794 122.313C40.6319 120.372 41.4684 118.463 42.7898 116.588C43.2178 115.979 43.663 115.439 44.1298 114.969C44.5696 114.522 45.0262 114.092 45.4988 113.678C45.9445 113.287 46.3539 112.929 46.7201 112.595C47.0879 112.264 47.387 111.934 47.6208 111.604C47.8155 111.326 47.966 110.98 48.067 110.56C48.17 110.144 48.1729 109.811 48.0817 109.563L58.3508 116.425C57.4462 116.08 56.4332 115.815 55.3192 115.63C54.2412 115.447 53.1448 115.389 52.0527 115.456C51.0142 115.522 49.9943 115.756 49.0354 116.149C48.0891 116.544 47.3394 117.133 46.7888 117.915C46.2577 118.668 45.9547 119.55 45.9145 120.461C45.868 121.399 46.0852 122.391 46.5711 123.441C47.057 124.491 47.8253 125.576 48.8804 126.689C49.9331 127.803 51.2942 128.915 52.9628 130.03C54.3665 130.969 55.7531 131.71 57.1167 132.247C58.4797 132.785 59.7486 133.103 60.9249 133.2C62.1016 133.297 63.1705 133.163 64.1345 132.803C65.0984 132.443 65.8913 131.819 66.5174 130.932C67.5161 129.515 68.0226 128.101 68.0354 126.695C68.0481 125.288 67.5637 123.791 66.5772 122.2L68.5281 121.545Z" fill="white"/>
<path d="M83.9029 103.384C84.3834 105.609 84.5035 107.72 84.2608 109.715C84.0157 111.712 83.4533 113.498 82.5717 115.078C81.6891 116.654 80.5026 117.989 79.0125 119.081C77.5249 120.168 75.7618 120.925 73.7221 121.338C71.6839 121.755 69.7565 121.756 67.9433 121.343C66.1291 120.927 64.4886 120.174 63.0255 119.075C61.5634 117.976 60.3062 116.562 59.2501 114.831C58.1974 113.098 57.4286 111.12 56.9476 108.894C56.4578 106.638 56.3367 104.513 56.5818 102.517C56.827 100.52 57.3898 98.7334 58.2744 97.1525C59.147 95.5871 60.3643 94.2284 61.8394 93.1735C63.3329 92.0984 65.0965 91.3532 67.1348 90.9365C69.173 90.5193 71.0979 90.5122 72.9092 90.9112C74.697 91.2996 76.3745 92.067 77.8221 93.1587C79.2842 94.2571 80.5413 95.6712 81.5945 97.4037C82.6423 99.1344 83.4136 101.127 83.9029 103.383V103.384ZM66.2076 107C66.5788 108.713 67.0078 110.251 67.4971 111.614C67.9864 112.975 68.516 114.112 69.0857 115.032C69.6555 115.953 70.262 116.62 70.8999 117.04C71.5402 117.46 72.1992 117.599 72.8758 117.46C73.5559 117.319 74.0996 116.934 74.5095 116.3C74.9194 115.666 75.2053 114.816 75.3587 113.749C75.5156 112.681 75.5353 111.43 75.4166 109.993C75.2979 108.556 75.0538 106.983 74.6806 105.266C74.3036 103.521 73.8697 101.97 73.3803 100.609C72.891 99.2469 72.3531 98.1093 71.7702 97.194C71.1828 96.2772 70.5718 95.6083 69.9325 95.1921C69.2951 94.772 68.6327 94.6333 67.956 94.7725C67.276 94.9132 66.7317 95.2979 66.3223 95.9325C65.9124 96.5665 65.6378 97.4161 65.4952 98.4817C65.3559 99.5463 65.3432 100.796 65.4623 102.232C65.5829 103.665 65.8305 105.255 66.2076 107Z" fill="white"/>
<path d="M101.548 102.104L93.2684 102.425L93.5602 109.379L98.4324 109.19L101.64 107.729L101.947 115.005L98.6256 113.799L93.7533 113.987L94.148 123.334L96.8923 126.642L83.1764 127.175L85.6363 123.667L84.685 101.057L81.9408 97.749L104.6 96.8699L104.965 105.528L101.548 102.104ZM126.428 87.4076L123.097 84.6582L99.9013 83.1955L96.2397 85.5058L97.6989 63.2002L106.582 63.7609L102.737 66.7063L102.195 75.0319L109.329 75.482L109.64 70.6977L108.474 67.4858L115.938 67.9554L114.364 70.9966L114.052 75.7804L121.847 76.2729L122.384 67.9425L118.953 64.5389L127.884 65.1034L126.428 87.4076Z" fill="white"/>
<path d="M112.483 120.155L113.604 116.048L104.989 95.0208L101.273 92.7882L122.598 84.5293L125.897 92.5789L121.51 90.4568L113.552 93.5386L116.201 100.007L120.775 98.2356L123.256 95.8375L126.03 102.603L122.533 102.52L117.958 104.291L120.852 111.356L128.811 108.274L130.494 103.8L133.812 111.895L112.483 120.155ZM79.988 73.4108L78.1003 81.262L85.0608 82.8577L86.1708 78.237L85.58 74.8358L92.8621 76.5064L90.7807 79.2954L89.6707 83.9162L99.0282 86.0606L103.034 84.3753L99.9034 97.3841L97.0842 94.135L74.4529 88.9479L70.4475 90.6332L75.6169 69.1433L84.2807 71.1281L79.988 73.4108ZM43.4971 79.9772L36.5563 85.2978L41.28 91.1329L45.3652 88.0001L47.1956 84.7805L52.1379 90.884L48.4959 91.8604L44.4106 94.9927L50.7621 102.839L55.2577 104.027L43.7501 112.849L43.6153 108.318L28.2593 89.3431L23.7631 88.1541L42.7597 73.5891L48.6405 80.8554L43.4971 79.9772Z" fill="white"/>
<path d="M61.9498 93.1932L60.9829 88.7584L42.4148 72.808L37.7353 72.3918L47.6538 61.4487L48.6922 65.8812L67.2603 81.8316L71.8682 82.2497L61.9498 93.1932Z" fill="white"/>
<path d="M79.3198 46.9968C79.5993 48.1467 79.6876 49.2447 79.5782 50.2974C79.4718 51.3491 79.1987 52.3213 78.7594 53.2166C78.3342 54.0882 77.7541 54.88 77.0458 55.5556C76.3554 56.213 75.5582 56.7552 74.6864 57.1604L74.7688 57.497C75.2502 57.4869 75.7504 57.5847 76.2657 57.7849C76.7825 57.988 77.2723 58.2278 77.74 58.5063C78.1696 58.7606 78.5778 59.0476 78.9609 59.3644C79.3081 59.6562 79.5557 59.8831 79.6993 60.0543L82.6392 64.0266C83.1786 64.6798 83.8238 65.1189 84.5706 65.3511C85.3173 65.5828 86.1734 65.4703 87.1354 65.014C87.0035 65.6171 86.7559 66.1544 86.3862 66.6274C86.0133 67.1032 85.5612 67.5151 85.0486 67.846C84.5187 68.1883 83.955 68.4785 83.3659 68.7122C82.7652 68.952 82.2043 69.1313 81.6807 69.251C80.0744 69.6214 78.6785 69.7153 77.4934 69.5323C76.3078 69.3497 75.2169 68.6493 74.228 67.4278L69.9333 61.9451C69.5327 61.4321 68.9855 61.0359 68.2952 60.7556C67.6048 60.4753 66.9464 60.4099 66.3246 60.5535L68.0996 67.8269L71.6651 70.7447L57.3652 74.0343L59.2048 69.8722L53.4751 46.3775L49.91 43.4593L63.2774 40.3837C65.2082 39.9384 67.065 39.7491 68.8463 39.8092C70.6256 39.874 72.2353 40.1849 73.6665 40.7479C75.1012 41.3095 76.3103 42.12 77.2948 43.1718C78.2818 44.2221 78.957 45.496 79.3198 46.9968ZM70.1902 49.3501C69.8867 48.1057 69.4327 47.1322 68.8311 46.4295C68.2261 45.7286 67.5578 45.2156 66.8243 44.8967C66.0878 44.5787 65.3337 44.4314 64.5644 44.4581C63.7917 44.4857 63.1082 44.6163 62.5071 44.8562L65.2396 56.0538C66.0741 56.0648 66.8444 55.9298 67.5538 55.6476C68.2501 55.3757 68.8655 54.9391 69.3445 54.3775C69.8284 53.8111 70.1608 53.1103 70.3398 52.2798C70.5085 51.4421 70.4624 50.4657 70.1898 49.3501H70.1902Z" fill="white"/>
<path d="M104.855 52.5181C105.129 54.2364 104.996 55.7567 104.46 57.0817C103.92 58.4075 103.133 59.5513 102.094 60.5224C101.054 61.4902 99.8507 62.2683 98.4798 62.8552C97.1094 63.4421 95.7399 63.8388 94.3749 64.0433C93.2438 64.2121 92.1881 64.3136 91.2016 64.3436C90.3011 64.3744 89.4 64.3854 88.499 64.3765C87.6802 64.367 86.9183 64.3565 86.2205 64.3436C85.5194 64.3322 84.9026 64.3661 84.3735 64.4471C84.1397 64.4829 83.8945 64.6016 83.6391 64.8066C83.3841 65.0116 83.1723 65.2395 83.008 65.4979L80.7418 51.259C81.2194 52.5233 81.8995 53.7063 82.757 54.7641C83.6268 55.8454 84.5849 56.7699 85.6253 57.5422C86.6687 58.3136 87.7317 58.9019 88.8167 59.3034C89.9018 59.7038 90.9275 59.834 91.8925 59.6895C92.502 59.5992 93.1043 59.4673 93.6948 59.2948C94.2641 59.127 94.7671 58.9105 95.2011 58.6469C95.635 58.3837 95.9674 58.0514 96.1925 57.6538C96.4175 57.2562 96.4881 56.7813 96.4009 56.2306C96.2636 55.3567 95.9022 54.5892 95.3178 53.9279C94.7343 53.2704 93.989 52.7103 93.0815 52.2468C92.1744 51.7868 91.132 51.3953 89.9582 51.074C88.7189 50.7392 87.4637 50.4625 86.197 50.2449C84.1985 49.8826 82.4403 49.0673 80.9262 47.7992C79.4136 46.5343 78.4624 44.6869 78.076 42.2564C77.8588 40.8957 77.9789 39.6189 78.4378 38.4213C78.8933 37.2251 79.6087 36.1391 80.5781 35.166C81.5469 34.1925 82.7374 33.3748 84.1475 32.7164C85.5571 32.0585 87.1114 31.6008 88.8084 31.3476C90.5735 31.0826 92.2048 31.023 93.7076 31.1593C95.2119 31.2985 96.4793 31.2928 97.5124 31.1364C97.7463 31.1002 97.9914 30.9815 98.2469 30.777C98.5023 30.572 98.698 30.3431 98.8279 30.0942L100.686 41.7581C100.259 40.7932 99.6345 39.9169 98.8102 39.1303C97.991 38.3464 97.0676 37.6726 96.0645 37.1269C95.0866 36.5925 94.0347 36.1975 92.9412 35.9541C91.864 35.7181 90.8604 35.669 89.9273 35.8082C88.7285 35.9884 87.7101 36.3736 86.8643 36.9629C86.0205 37.5555 85.664 38.2544 85.794 39.064C85.8935 39.6809 86.3113 40.1796 87.0536 40.5667C87.7954 40.9529 88.7108 41.3057 89.8028 41.6218C90.8912 41.9393 92.091 42.2583 93.4041 42.5729C94.7024 42.8878 95.9777 43.287 97.2211 43.7677C99.3653 44.6096 101.082 45.7019 102.369 47.0516C103.661 48.3922 104.489 50.2173 104.855 52.5181ZM42.6506 57.813C44.1029 61.3076 43.9764 64.4099 42.2691 67.1151C40.5619 69.8202 37.4454 72.0619 32.9199 73.8397L19.9482 78.9363L21.122 74.5511L11.8189 52.162L7.84246 49.8006L20.0149 45.0187C21.2019 44.5515 22.5067 44.11 23.9291 43.6933C25.351 43.2762 26.7277 43.0259 28.057 42.9472C29.3857 42.868 30.5806 43.0177 31.647 43.3925C32.711 43.7715 33.4778 44.5214 33.9451 45.6456C34.1819 46.2041 34.2835 46.8079 34.2422 47.4106C34.202 48.007 34.0587 48.5926 33.8181 49.1427C33.5674 49.7122 33.2262 50.2399 32.8071 50.7064C32.3794 51.1895 31.887 51.6146 31.343 51.9703L31.419 52.1529C32.0069 51.9932 32.8184 51.9384 33.8583 51.9923C34.8968 52.0428 35.973 52.2759 37.089 52.6869C38.2049 53.0983 39.2674 53.7129 40.2794 54.5377C41.2895 55.3482 42.0808 56.4418 42.6506 57.813ZM25.4162 49.8869C25.2392 49.4611 24.9661 49.136 24.5993 48.9071C24.233 48.6783 23.8163 48.5329 23.3539 48.4685C22.8911 48.4046 22.4061 48.4352 21.8977 48.5639C21.3888 48.6931 20.895 48.8871 20.4238 49.1431L22.3753 53.8392C23.5255 53.4578 24.4027 52.9086 25.0117 52.1925C25.6221 51.4793 25.7579 50.7103 25.4162 49.8869ZM33.9814 61.588C33.6331 60.7564 33.1396 59.9896 32.5227 59.3215C31.9068 58.6447 31.1518 58.1009 30.3065 57.7253C29.4617 57.3491 28.5159 57.1727 27.473 57.1951C26.4301 57.2171 25.3171 57.5126 24.1374 58.0805L29.5563 71.1217C30.8027 70.6321 31.8123 70.0233 32.5816 69.2957C33.3509 68.5692 33.8956 67.7811 34.2118 66.9305C34.53 66.0837 34.6646 65.182 34.607 64.2821C34.5538 63.3565 34.3423 62.446 33.9814 61.588Z" fill="white"/>
<path d="M124.092 36.6063L119.268 37.8759L125.255 59.331L128.928 62.1849L114.648 65.9466L116.383 61.6691L110.395 40.214L105.57 41.4831L102.866 46.9835L100.138 37.2042L126.556 30.243L129.284 40.0223L124.092 36.6063ZM30.2174 17.2251L48.0844 23.0621C49.872 23.6452 51.3008 24.4514 52.3687 25.4745C53.4366 26.4967 54.2108 27.6051 54.6879 28.7999C55.1654 29.9946 55.3998 31.2032 55.3861 32.4232C55.3743 33.6466 55.2007 34.7393 54.8712 35.7033L53.974 38.3146C53.4415 39.8688 52.7448 41.249 51.8838 42.4557C51.0267 43.6605 49.9912 44.6302 48.7811 45.3553C47.5725 46.0833 46.181 46.5105 44.611 46.6359C43.0405 46.7608 41.2955 46.511 39.3794 45.885L22.2891 40.2979L17.8611 41.7024L22.652 27.7653L25.3163 31.4888L42.7983 37.2004C43.9486 37.5761 44.9356 37.7773 45.7622 37.8059C46.5894 37.8354 47.2852 37.7148 47.8539 37.454C48.4151 37.1995 48.8937 36.8001 49.2376 36.2993C49.5891 35.7925 49.8872 35.1837 50.1334 34.4685C50.3565 33.8178 50.4746 33.1899 50.4883 32.5882C50.5011 31.9966 50.3533 31.4122 50.0598 30.8938C49.7637 30.3651 49.291 29.8726 48.6482 29.4206C48.0054 28.9691 47.1542 28.5696 46.1015 28.2268L28.4229 22.4461L23.9979 23.8492L27.5379 13.5488L30.217 17.2251H30.2174ZM139.915 105.496C140.32 106.469 140.314 107.459 139.9 108.471C139.484 109.485 138.764 110.192 137.734 110.596C137.243 110.791 136.714 110.881 136.183 110.859C135.665 110.842 135.155 110.728 134.681 110.522C134.207 110.312 133.774 110.025 133.401 109.672C133.017 109.315 132.716 108.882 132.518 108.401C132.317 107.923 132.224 107.408 132.246 106.891C132.264 106.386 132.37 105.887 132.559 105.416C132.752 104.947 133.037 104.52 133.398 104.158C133.764 103.784 134.209 103.491 134.703 103.299C135.194 103.104 135.723 103.015 136.253 103.036C136.778 103.056 137.294 103.167 137.778 103.365C138.258 103.565 138.692 103.853 139.058 104.215C139.427 104.583 139.718 105.018 139.915 105.496H139.915Z" fill="white"/>
<path d="M84.2673 28.1313L81.9555 23.8119L61.7105 34.0641L59.6356 38.1661L52.7933 25.3823L57.4591 26.1242L77.704 15.8715L75.3922 11.5515L69.2947 10.1537L78.5213 5.48145L91.1777 29.1287L81.9511 33.8004L84.2673 28.1313ZM132.369 54.446C132.366 56.1504 132.041 57.6236 131.398 58.867C130.756 60.1109 130.082 61.0763 129.372 61.7609C129.202 61.9245 128.998 62.0046 128.764 62.0036C128.596 62.0026 128.46 61.944 128.36 61.831C128.258 61.7142 128.24 61.5426 128.31 61.3137C128.411 61.0506 128.519 60.7321 128.639 60.3573C128.758 59.9793 128.818 59.646 128.818 59.3514C128.819 59.0234 128.753 58.7435 128.619 58.5132C128.485 58.2825 128.182 58.2 127.712 58.2625C126.666 58.3898 125.809 58.067 125.136 57.2951C124.464 56.5237 124.13 55.5631 124.134 54.4136C124.138 53.3647 124.526 52.456 125.301 51.6894C126.077 50.9223 127.054 50.539 128.234 50.5442C128.839 50.5452 129.397 50.6539 129.9 50.8703C130.389 51.0763 130.833 51.3689 131.212 51.7333C131.575 52.0877 131.866 52.5061 132.068 52.9662C132.269 53.431 132.369 53.9211 132.369 54.446ZM133.994 87.6365C134.795 89.5646 133.869 91.6909 131.847 92.4852C129.847 93.2714 127.619 92.3841 126.817 90.4556C126.033 88.5686 127.002 86.4256 129.002 85.6399C131.028 84.8437 133.21 85.7495 133.994 87.6361V87.6365ZM127.715 90.1028C128.345 91.618 129.995 92.3674 131.57 91.7481C133.103 91.146 133.732 89.5016 133.111 88.0056C132.482 86.4933 130.845 85.7128 129.29 86.324C127.734 86.9352 127.095 88.6101 127.715 90.1028ZM130.607 91.0387L129.797 91.3567L128.383 87.9545C128.676 87.7653 129.107 87.5512 129.683 87.3252C130.344 87.0654 130.683 87.0516 131 87.0978C131.251 87.1674 131.515 87.38 131.652 87.71C131.807 88.0818 131.629 88.4909 131.257 88.7827L131.274 88.8242C131.665 88.816 131.961 88.9862 132.256 89.4029C132.578 89.8806 132.73 90.0628 132.867 90.1543L131.996 90.4966C131.839 90.4132 131.644 90.1281 131.374 89.7758C131.153 89.4268 130.874 89.3457 130.428 89.5216L130.046 89.6713L130.613 91.0363L130.607 91.0387ZM129.825 89.1026L130.209 88.9514C130.657 88.7755 130.959 88.489 130.812 88.1371C130.683 87.8263 130.363 87.71 129.85 87.9111C129.699 87.9679 129.555 88.0408 129.42 88.1286L129.825 89.1026Z" fill="white"/>
</svg>
